<mxfile host="Electron" modified="2024-02-29T15:35:11.808Z" agent="Mozilla/5.0 (Windows NT 10.0; Win64; x64) AppleWebKit/537.36 (KHTML, like Gecko) draw.io/23.0.2 Chrome/120.0.6099.109 Electron/28.1.0 Safari/537.36" etag="bL2mB4mzmMBQWWwDAoCo" version="23.0.2" type="device">
  <diagram name="Page-1" id="ljB_CUVU-GoVicHSYB2W">
    <mxGraphModel dx="3232" dy="1414" grid="1" gridSize="10" guides="1" tooltips="1" connect="1" arrows="1" fold="1" page="1" pageScale="1" pageWidth="850" pageHeight="1100" math="0" shadow="0">
      <root>
        <mxCell id="0" />
        <mxCell id="1" parent="0" />
        <mxCell id="yJwaNXPeE3DZJm8bJqMV-8" value="HPC&#xa;(Iain &amp; Becky)" style="swimlane;startSize=90;fontSize=18;" parent="1" vertex="1">
          <mxGeometry x="80" y="180" width="290" height="280" as="geometry" />
        </mxCell>
        <mxCell id="yJwaNXPeE3DZJm8bJqMV-1" value="&lt;br style=&quot;font-size: 18px;&quot;&gt;timeseries&amp;nbsp;&lt;br style=&quot;font-size: 18px;&quot;&gt;database&amp;nbsp;" style="strokeWidth=2;html=1;shape=mxgraph.flowchart.database;whiteSpace=wrap;fontSize=18;" parent="yJwaNXPeE3DZJm8bJqMV-8" vertex="1">
          <mxGeometry x="75" y="130" width="140" height="80" as="geometry" />
        </mxCell>
        <mxCell id="yJwaNXPeE3DZJm8bJqMV-10" value="RETINA VM&#xa;data storage and&#xa;docker containers" style="swimlane;startSize=95;fontSize=18;" parent="1" vertex="1">
          <mxGeometry x="425" y="110" width="1230" height="1210" as="geometry" />
        </mxCell>
        <mxCell id="yJwaNXPeE3DZJm8bJqMV-9" value="apache docker&#xa;David D." style="swimlane;startSize=60;fontSize=18;" parent="yJwaNXPeE3DZJm8bJqMV-10" vertex="1">
          <mxGeometry x="805" y="130" width="330" height="540" as="geometry" />
        </mxCell>
        <mxCell id="yJwaNXPeE3DZJm8bJqMV-4" value="RETINA&amp;nbsp; APP&lt;br&gt;(php code)" style="rounded=1;whiteSpace=wrap;html=1;absoluteArcSize=1;arcSize=14;strokeWidth=2;fontSize=18;" parent="yJwaNXPeE3DZJm8bJqMV-9" vertex="1">
          <mxGeometry x="80" y="95" width="200" height="125" as="geometry" />
        </mxCell>
        <mxCell id="SM6FNZ5alnEUjPxbdaED-17" value="pecan API&lt;br&gt;(R code that&lt;br&gt;calls peacan to&lt;br&gt;interact with the BETY database and&amp;nbsp;&lt;br&gt;initiate runs)" style="rounded=1;whiteSpace=wrap;html=1;absoluteArcSize=1;arcSize=14;strokeWidth=2;fontSize=18;" vertex="1" parent="yJwaNXPeE3DZJm8bJqMV-9">
          <mxGeometry x="80" y="280" width="200" height="210" as="geometry" />
        </mxCell>
        <mxCell id="SM6FNZ5alnEUjPxbdaED-15" value="omura docker&#xa;David D." style="swimlane;startSize=60;fontSize=18;" vertex="1" parent="yJwaNXPeE3DZJm8bJqMV-10">
          <mxGeometry x="460" y="170" width="280" height="230" as="geometry" />
        </mxCell>
        <mxCell id="yJwaNXPeE3DZJm8bJqMV-6" value="&lt;br style=&quot;font-size: 18px;&quot;&gt;user info &lt;br style=&quot;font-size: 18px;&quot;&gt;database SQL" style="strokeWidth=2;html=1;shape=mxgraph.flowchart.database;whiteSpace=wrap;fontSize=18;" parent="SM6FNZ5alnEUjPxbdaED-15" vertex="1">
          <mxGeometry x="70" y="75" width="140" height="80" as="geometry" />
        </mxCell>
        <mxCell id="2Asf7AXjyBVp8M9h_wMF-1" style="edgeStyle=orthogonalEdgeStyle;rounded=0;orthogonalLoop=1;jettySize=auto;html=1;exitX=0;exitY=0.5;exitDx=0;exitDy=0;entryX=1;entryY=0.5;entryDx=0;entryDy=0;entryPerimeter=0;fontSize=18;" parent="yJwaNXPeE3DZJm8bJqMV-10" source="yJwaNXPeE3DZJm8bJqMV-4" target="yJwaNXPeE3DZJm8bJqMV-6" edge="1">
          <mxGeometry relative="1" as="geometry" />
        </mxCell>
        <mxCell id="SM6FNZ5alnEUjPxbdaED-4" value="BETY docker&#xa;(Part of PEcAn)&#xa;Betsy" style="swimlane;startSize=70;fontSize=18;" vertex="1" parent="yJwaNXPeE3DZJm8bJqMV-10">
          <mxGeometry x="45" y="325" width="280" height="250" as="geometry" />
        </mxCell>
        <mxCell id="SM6FNZ5alnEUjPxbdaED-6" value="BETY database&lt;br style=&quot;font-size: 18px;&quot;&gt;metadata &amp;amp; provanance tracking&amp;nbsp;" style="strokeWidth=2;html=1;shape=mxgraph.flowchart.database;whiteSpace=wrap;fontSize=18;" vertex="1" parent="SM6FNZ5alnEUjPxbdaED-4">
          <mxGeometry x="62.5" y="90" width="155" height="130" as="geometry" />
        </mxCell>
        <mxCell id="SM6FNZ5alnEUjPxbdaED-12" value="pecan docker" style="swimlane;startSize=40;fontSize=18;" vertex="1" parent="yJwaNXPeE3DZJm8bJqMV-10">
          <mxGeometry x="55" y="625" width="280" height="290" as="geometry" />
        </mxCell>
        <mxCell id="SM6FNZ5alnEUjPxbdaED-14" value="PEcAn code for&amp;nbsp;&lt;br style=&quot;font-size: 18px;&quot;&gt;- reading in data (parameterization, validation, lorawan database, retina app)&lt;br style=&quot;font-size: 18px;&quot;&gt;-- running models&lt;br style=&quot;font-size: 18px;&quot;&gt;- processing outputs&amp;nbsp;&lt;br style=&quot;font-size: 18px;&quot;&gt;- making visualizations" style="rounded=1;whiteSpace=wrap;html=1;absoluteArcSize=1;arcSize=14;strokeWidth=2;fontSize=18;" vertex="1" parent="SM6FNZ5alnEUjPxbdaED-12">
          <mxGeometry x="52.5" y="60" width="175" height="200" as="geometry" />
        </mxCell>
        <mxCell id="SM6FNZ5alnEUjPxbdaED-18" style="edgeStyle=orthogonalEdgeStyle;rounded=0;orthogonalLoop=1;jettySize=auto;html=1;exitX=0;exitY=0.5;exitDx=0;exitDy=0;entryX=1;entryY=0.5;entryDx=0;entryDy=0;" edge="1" parent="yJwaNXPeE3DZJm8bJqMV-10" source="SM6FNZ5alnEUjPxbdaED-17" target="SM6FNZ5alnEUjPxbdaED-14">
          <mxGeometry relative="1" as="geometry" />
        </mxCell>
        <mxCell id="SM6FNZ5alnEUjPxbdaED-20" style="edgeStyle=orthogonalEdgeStyle;rounded=0;orthogonalLoop=1;jettySize=auto;html=1;exitX=0.5;exitY=1;exitDx=0;exitDy=0;exitPerimeter=0;entryX=1;entryY=0.5;entryDx=0;entryDy=0;" edge="1" parent="yJwaNXPeE3DZJm8bJqMV-10" source="yJwaNXPeE3DZJm8bJqMV-6" target="SM6FNZ5alnEUjPxbdaED-14">
          <mxGeometry relative="1" as="geometry" />
        </mxCell>
        <mxCell id="SM6FNZ5alnEUjPxbdaED-22" value="&lt;font style=&quot;font-size: 18px;&quot;&gt;Internal storage:&lt;br&gt;model&lt;br style=&quot;&quot;&gt;parameterization &amp;amp;&lt;br style=&quot;&quot;&gt;validation data&lt;/font&gt;" style="shape=internalStorage;whiteSpace=wrap;html=1;dx=15;dy=15;rounded=1;arcSize=8;strokeWidth=2;" vertex="1" parent="yJwaNXPeE3DZJm8bJqMV-10">
          <mxGeometry x="50" y="125" width="285" height="160" as="geometry" />
        </mxCell>
        <mxCell id="SM6FNZ5alnEUjPxbdaED-23" style="edgeStyle=orthogonalEdgeStyle;rounded=0;orthogonalLoop=1;jettySize=auto;html=1;exitX=0.5;exitY=1;exitDx=0;exitDy=0;entryX=0;entryY=0.5;entryDx=0;entryDy=0;entryPerimeter=0;" edge="1" parent="yJwaNXPeE3DZJm8bJqMV-10" source="SM6FNZ5alnEUjPxbdaED-22" target="SM6FNZ5alnEUjPxbdaED-6">
          <mxGeometry relative="1" as="geometry">
            <Array as="points">
              <mxPoint x="193" y="305" />
              <mxPoint x="30" y="305" />
              <mxPoint x="30" y="480" />
            </Array>
          </mxGeometry>
        </mxCell>
        <mxCell id="SM6FNZ5alnEUjPxbdaED-24" style="edgeStyle=orthogonalEdgeStyle;rounded=0;orthogonalLoop=1;jettySize=auto;html=1;exitX=0.5;exitY=1;exitDx=0;exitDy=0;exitPerimeter=0;entryX=0;entryY=0.5;entryDx=0;entryDy=0;" edge="1" parent="yJwaNXPeE3DZJm8bJqMV-10" source="SM6FNZ5alnEUjPxbdaED-6" target="SM6FNZ5alnEUjPxbdaED-14">
          <mxGeometry relative="1" as="geometry">
            <Array as="points">
              <mxPoint x="185" y="615" />
              <mxPoint x="25" y="615" />
              <mxPoint x="25" y="785" />
            </Array>
          </mxGeometry>
        </mxCell>
        <mxCell id="SM6FNZ5alnEUjPxbdaED-27" style="edgeStyle=orthogonalEdgeStyle;rounded=0;orthogonalLoop=1;jettySize=auto;html=1;exitX=0.5;exitY=1;exitDx=0;exitDy=0;entryX=0.5;entryY=1;entryDx=0;entryDy=0;" edge="1" parent="yJwaNXPeE3DZJm8bJqMV-10" source="SM6FNZ5alnEUjPxbdaED-25" target="SM6FNZ5alnEUjPxbdaED-17">
          <mxGeometry relative="1" as="geometry" />
        </mxCell>
        <mxCell id="SM6FNZ5alnEUjPxbdaED-25" value="&lt;font style=&quot;font-size: 18px;&quot;&gt;Internal storage:&lt;br&gt;model&lt;br style=&quot;&quot;&gt;outputs and visualizations&lt;br&gt;&lt;/font&gt;" style="shape=internalStorage;whiteSpace=wrap;html=1;dx=15;dy=15;rounded=1;arcSize=8;strokeWidth=2;" vertex="1" parent="yJwaNXPeE3DZJm8bJqMV-10">
          <mxGeometry x="52.5" y="970" width="285" height="160" as="geometry" />
        </mxCell>
        <mxCell id="SM6FNZ5alnEUjPxbdaED-26" style="edgeStyle=orthogonalEdgeStyle;rounded=0;orthogonalLoop=1;jettySize=auto;html=1;exitX=0.5;exitY=1;exitDx=0;exitDy=0;" edge="1" parent="yJwaNXPeE3DZJm8bJqMV-10" source="SM6FNZ5alnEUjPxbdaED-14" target="SM6FNZ5alnEUjPxbdaED-25">
          <mxGeometry relative="1" as="geometry" />
        </mxCell>
        <mxCell id="yJwaNXPeE3DZJm8bJqMV-2" value="lorawan&amp;nbsp;&lt;br style=&quot;font-size: 18px;&quot;&gt;sensor&lt;br style=&quot;font-size: 18px;&quot;&gt;data" style="shape=parallelogram;html=1;strokeWidth=2;perimeter=parallelogramPerimeter;whiteSpace=wrap;rounded=1;arcSize=12;size=0.23;fontSize=18;" parent="1" vertex="1">
          <mxGeometry x="-230" y="220" width="150" height="60" as="geometry" />
        </mxCell>
        <mxCell id="SM6FNZ5alnEUjPxbdaED-3" style="edgeStyle=orthogonalEdgeStyle;rounded=0;orthogonalLoop=1;jettySize=auto;html=1;exitX=0.5;exitY=1;exitDx=0;exitDy=0;entryX=0;entryY=0.5;entryDx=0;entryDy=0;entryPerimeter=0;" edge="1" parent="1" source="yJwaNXPeE3DZJm8bJqMV-2" target="yJwaNXPeE3DZJm8bJqMV-1">
          <mxGeometry relative="1" as="geometry" />
        </mxCell>
        <mxCell id="SM6FNZ5alnEUjPxbdaED-28" style="edgeStyle=orthogonalEdgeStyle;rounded=0;orthogonalLoop=1;jettySize=auto;html=1;exitX=0;exitY=0.5;exitDx=0;exitDy=0;entryX=1;entryY=0.5;entryDx=0;entryDy=0;" edge="1" parent="1" source="yJwaNXPeE3DZJm8bJqMV-3" target="yJwaNXPeE3DZJm8bJqMV-4">
          <mxGeometry relative="1" as="geometry" />
        </mxCell>
        <mxCell id="yJwaNXPeE3DZJm8bJqMV-3" value="user input&lt;br style=&quot;font-size: 18px;&quot;&gt;ie management&amp;nbsp;&lt;br style=&quot;font-size: 18px;&quot;&gt;data" style="shape=parallelogram;html=1;strokeWidth=2;perimeter=parallelogramPerimeter;whiteSpace=wrap;rounded=1;arcSize=12;size=0.23;fontSize=18;" parent="1" vertex="1">
          <mxGeometry x="1770" y="367.5" width="170" height="60" as="geometry" />
        </mxCell>
        <mxCell id="SM6FNZ5alnEUjPxbdaED-21" style="edgeStyle=orthogonalEdgeStyle;rounded=0;orthogonalLoop=1;jettySize=auto;html=1;exitX=0.5;exitY=1;exitDx=0;exitDy=0;exitPerimeter=0;entryX=0;entryY=0.85;entryDx=0;entryDy=0;entryPerimeter=0;" edge="1" parent="1" source="yJwaNXPeE3DZJm8bJqMV-1" target="SM6FNZ5alnEUjPxbdaED-6">
          <mxGeometry relative="1" as="geometry" />
        </mxCell>
      </root>
    </mxGraphModel>
  </diagram>
</mxfile>
